<svg aria-hidden="true" style="position: absolute; width: 0; height: 0; overflow: hidden;" version="1.1" xmlns="http://www.w3.org/2000/svg" xmlns:xlink="http://www.w3.org/1999/xlink">
<defs>
<symbol id="icon-1" viewBox="0 0 32 32">
<path d="M30.025 0.018c-1.915 0.205-5.142 2.587-9.92 7.32-2.895 2.868-6.422 6.69-9.177 9.942l-0.457 0.54-0.377-0.197c-0.672-0.352-1.897-0.963-2.475-1.232-2.71-1.268-4.457-1.808-5.68-1.758-0.425 0.018-0.66 0.072-0.988 0.232-0.195 0.098-0.272 0.152-0.438 0.32-0.347 0.348-0.497 0.725-0.497 1.24 0 0.455 0.018 0.48 0.81 1.218 1 0.932 2.21 2.185 3.025 3.132 1.975 2.295 3.975 5.28 6.325 9.425 0.415 0.732 0.498 0.852 0.643 0.952 0.355 0.245 0.795 0.22 1.123-0.060 0.133-0.115 0.213-0.27 0.457-0.888 1.178-2.95 2.71-6.207 4.22-8.967 2.558-4.672 5.408-8.765 8.695-12.475 1.263-1.425 2.403-2.595 4.463-4.577 1.408-1.353 1.812-1.792 2.025-2.19 0.352-0.66 0.217-1.295-0.357-1.683-0.345-0.233-0.905-0.35-1.418-0.295z"></path>
</symbol>
<symbol id="icon-checkmark" viewBox="0 0 32 32">
<path d="M27 4l-15 15-7-7-5 5 12 12 20-20z"></path>
</symbol>
</defs>
</svg>
