<svg aria-hidden="true" style="position: absolute; width: 0; height: 0; overflow: hidden;" version="1.1" xmlns="http://www.w3.org/2000/svg" xmlns:xlink="http://www.w3.org/1999/xlink">
<defs>
<symbol id="icon-1" viewBox="0 0 32 32">
<path d="M30.025 0.018c-1.915 0.205-5.142 2.587-9.92 7.32-2.895 2.868-6.422 6.69-9.177 9.942l-0.457 0.54-0.377-0.197c-0.672-0.352-1.897-0.963-2.475-1.232-2.71-1.268-4.457-1.808-5.68-1.758-0.425 0.018-0.66 0.072-0.988 0.232-0.195 0.098-0.272 0.152-0.438 0.32-0.347 0.348-0.497 0.725-0.497 1.24 0 0.455 0.018 0.48 0.81 1.218 1 0.932 2.21 2.185 3.025 3.132 1.975 2.295 3.975 5.28 6.325 9.425 0.415 0.732 0.498 0.852 0.643 0.952 0.355 0.245 0.795 0.22 1.123-0.060 0.133-0.115 0.213-0.27 0.457-0.888 1.178-2.95 2.71-6.207 4.22-8.967 2.558-4.672 5.408-8.765 8.695-12.475 1.263-1.425 2.403-2.595 4.463-4.577 1.408-1.353 1.812-1.792 2.025-2.19 0.352-0.66 0.217-1.295-0.357-1.683-0.345-0.233-0.905-0.35-1.418-0.295z"></path>
</symbol>
<symbol id="icon-checkmark" viewBox="0 0 32 32">
<path d="M27 4l-15 15-7-7-5 5 12 12 20-20z"></path>
</symbol>
<symbol id="icon-icon-1-1" viewBox="0 0 32 32">
<path d="M31.615 14.787c-0.569-8.277-7.418-14.777-15.786-14.787h-0.326c-4.255 0.088-8.082 1.847-10.866 4.645l-0.001 0.001c-0.026 0.021-0.049 0.044-0.069 0.069l-0.001 0.001c-2.643 2.658-4.345 6.255-4.564 10.246l-0.002 0.040v0.81c0 0.003 0 0.006 0 0.010 0 4.785 2.124 9.074 5.481 11.975l0.020 0.017c-0.147 0.624-0.238 1.343-0.25 2.082l-0 0.009c-0 0.008-0.001 0.018-0.001 0.028 0 0.217 0.139 0.402 0.332 0.471l0.003 0.001c2.598 0.895 5.597 1.463 8.712 1.574l0.054 0.002h0.095q0.69 0.025 1.38 0.030c0.525 0 1.055 0 1.58-0.040h0.050c0.016 0.002 0.034 0.003 0.052 0.003s0.037-0.001 0.055-0.003l-0.002 0c3.081-0.133 5.986-0.694 8.72-1.625l-0.219 0.065c0.197-0.070 0.335-0.255 0.335-0.472 0-0.001 0-0.002 0-0.003v0c0-0.013 0-0.028 0-0.043 0-0.735-0.088-1.45-0.253-2.134l0.013 0.062c0.275-0.24 0.55-0.5 0.81-0.755 2.872-2.849 4.651-6.797 4.651-11.161 0-0.016-0-0.032-0-0.048v0.002-0.62c0.025-0.095-0.005-0.45-0.005-0.45zM30.615 14.512h-4.741c-0.13-2.971-0.837-5.746-2.011-8.26l0.056 0.134c1.008-0.283 1.847-0.584 2.659-0.937l-0.133 0.052c2.299 2.352 3.82 5.474 4.141 8.943l0.004 0.058zM24.914 15.827c0 0.038 0 0.084 0 0.129 0 2.78-0.517 5.439-1.461 7.887l0.051-0.15c-0.838-0.634-1.813-1.145-2.867-1.481l-0.069-0.019c0.97-0.97 1.58-2.301 1.61-3.775l0-0.006v-2.91h2.72c0.010 0.115 0.015 0.22 0.015 0.325zM15.772 23.259c-2.835 0-5.421-2.335-5.421-4.866v-1.725h0.43c1.5 0 1.935-0.58 2.6-1.635 0.735 1.030 1.5 1.635 3.311 1.635h4.501v1.725c-0.075 1.648-0.968 3.072-2.28 3.884l-0.021 0.012c-0.876 0.598-1.955 0.959-3.118 0.97l-0.003 0zM8.131 23.664c-0.881-2.284-1.391-4.926-1.391-7.688 0-0.054 0-0.108 0.001-0.162l-0 0.008v-0.31h2.595v2.88c0.033 1.48 0.646 2.812 1.62 3.78l0 0c-1.080 0.37-2.016 0.875-2.85 1.508l0.025-0.018zM5.081 5.626c0.701 0.303 1.565 0.602 2.453 0.842l0.143 0.033c-1.081 2.346-1.766 5.078-1.894 7.955l-0.002 0.046h-4.721c0.319-3.467 1.792-6.541 4.026-8.882l-0.005 0.006zM10.347 15.667v-0.965c-0.005-0.080-0.008-0.173-0.008-0.267 0-1.666 0.891-3.123 2.222-3.922l0.021-0.012c0.839-0.487 1.846-0.776 2.919-0.78h0.001c0.043-0.001 0.094-0.002 0.145-0.002 1.105 0 2.143 0.29 3.041 0.798l-0.031-0.016c1.522 0.877 2.53 2.495 2.53 4.348 0 0.078-0.002 0.156-0.005 0.234l0-0.011v0.6h-4.501c-1.66 0-2.065-0.525-2.905-1.825-0.090-0.139-0.245-0.23-0.42-0.23h-0c-0.176 0-0.33 0.091-0.419 0.228l-0.001 0.002-0.295 0.465c-0.7 1.125-0.85 1.36-1.87 1.36zM15.002 6.446c-0.003 0-0.006 0-0.010 0-2.082 0-4.113-0.217-6.073-0.629l0.191 0.034c1.5-2.66 3.556-4.441 5.876-4.786zM16.003 1c2.555 0.075 4.856 1.875 6.501 4.726-1.951 0.447-4.193 0.707-6.495 0.715h-0.006zM8.131 5.616c-0.914-0.243-1.671-0.501-2.406-0.803l0.131 0.047c1.503-1.373 3.306-2.447 5.296-3.11l0.105-0.030c-1.275 1.070-2.323 2.363-3.092 3.826l-0.033 0.069zM8.631 6.766c1.915 0.432 4.114 0.68 6.371 0.68h0v1.3c-1.085 0.086-2.078 0.411-2.948 0.923l0.032-0.018c-1.656 0.969-2.751 2.739-2.751 4.764 0 0.030 0 0.061 0.001 0.091l-0-0.005h-2.555c0.128-2.829 0.8-5.47 1.914-7.865l-0.054 0.128zM22.153 14.502c-0.094-2.095-1.266-3.896-2.972-4.871l-0.029-0.015c-0.909-0.514-1.986-0.838-3.135-0.89l-0.015-0.001v-1.28c2.474-0.008 4.876-0.299 7.18-0.843l-0.214 0.043c1.092 2.299 1.781 4.983 1.904 7.813l0.001 0.043zM25.654 4.721c-0.58 0.255-1.313 0.521-2.063 0.744l-0.142 0.036c-0.794-1.475-1.816-2.721-3.036-3.739l-0.020-0.016c2.032 0.667 3.785 1.689 5.271 3.004l-0.016-0.014zM1 15.827v-0.31h4.736v0.31c-0 0.054-0.001 0.118-0.001 0.182 0 3.010 0.584 5.883 1.645 8.513l-0.054-0.153c-0.64 0.665-1.15 1.461-1.484 2.343l-0.016 0.048c-2.968-2.717-4.823-6.607-4.826-10.931v-0.001zM8.236 24.879l0.060-0.050c0.986-0.857 2.177-1.507 3.488-1.866l0.063-0.015c0.534 0.395 1.15 0.722 1.812 0.951l0.048 0.014 0.545 1.705-1.115 3.706c-0.018 0.049-0.028 0.106-0.028 0.165s0.010 0.116 0.029 0.169l-0.001-0.003 0.5 1.28c-2.699-0.159-5.225-0.648-7.619-1.43l0.213 0.060c0.017-1.839 0.782-3.496 2.004-4.684l0.002-0.002zM14.737 30.98l-0.615-1.54 1.11-3.686c0.014-0.044 0.022-0.095 0.022-0.148s-0.008-0.103-0.023-0.151l0.001 0.004-0.41-1.275c0.273 0.046 0.591 0.075 0.915 0.080l0.005 0h0.040c0.378-0.002 0.746-0.038 1.103-0.106l-0.038 0.006-0.28 1.34c-0.010 0.038-0.016 0.081-0.016 0.125s0.006 0.087 0.017 0.128l-0.001-0.003 1.045 3.621-0.53 1.61c-0.77 0.020-1.545 0.020-2.32 0.020zM18.138 30.915l0.455-1.385c0.014-0.044 0.022-0.095 0.022-0.148s-0.008-0.103-0.023-0.151l0.001 0.004-1.050-3.646 0.4-1.73c0.562-0.206 1.047-0.455 1.495-0.756l-0.025 0.016c0.080-0.055 0.155-0.115 0.23-0.175 2.595 0.705 5.571 2.425 5.731 6.611-2.121 0.705-4.58 1.192-7.126 1.36l-0.090 0.005zM26.274 26.324c-0.15 0.15-0.305 0.285-0.46 0.43-0.366-0.918-0.883-1.702-1.527-2.362l0.001 0.001c1.016-2.487 1.606-5.373 1.606-8.397 0-0.061-0-0.123-0.001-0.184l0 0.009v-0.31h4.736v0.31c0 0.021 0 0.046 0 0.071 0 4.078-1.657 7.769-4.335 10.436l-0 0z"></path>
</symbol>
<symbol id="icon-icon-2-1" viewBox="0 0 32 32">
<path d="M16 32c-0 0-0 0-0 0-0.365 0-0.661-0.293-0.667-0.656v-0.011c0.002-0.030 0.003-0.066 0.003-0.101 0-1.050-0.851-1.901-1.901-1.901-0.036 0-0.071 0.001-0.106 0.003l0.005-0h-12.667c-0.368 0-0.667-0.298-0.667-0.667v0-21.333c0-0.368 0.298-0.667 0.667-0.667v0h4.667v1.333h-4v20h12c0.053-0.003 0.115-0.005 0.177-0.005 1.017 0 1.919 0.49 2.484 1.247l0.006 0.008c0.57-0.765 1.473-1.255 2.49-1.255 0.062 0 0.124 0.002 0.186 0.005l-0.008-0h12v-20h-4v-1.333h4.667c0.368 0 0.667 0.298 0.667 0.667v0 21.333c0 0.368-0.298 0.667-0.667 0.667v0h-12.667c-0.030-0.002-0.065-0.003-0.101-0.003-1.050 0-1.902 0.852-1.902 1.902 0 0.037 0.001 0.073 0.003 0.109l-0-0.005c-0.002 0.367-0.3 0.663-0.667 0.663 0 0 0 0 0 0v0z"></path>
<path d="M15.333 24h1.333v7.333h-1.333zM8.667 17.333c-2.576-0.003-4.664-2.091-4.667-4.666v-0c0-0.368 0.298-0.667 0.667-0.667v0h8c0.368 0 0.667 0.298 0.667 0.667v0c-0.003 2.576-2.091 4.664-4.666 4.667h-0zM5.4 13.333c0.32 1.534 1.66 2.67 3.267 2.67s2.947-1.136 3.263-2.648l0.004-0.022z"></path>
<path d="M12.095 13.010l-3.429-5.714-3.429 5.714-1.143-0.687 4-6.667c0.127-0.183 0.335-0.301 0.571-0.301s0.445 0.118 0.57 0.299l0.002 0.002 4 6.667zM23.333 17.333c-2.576-0.003-4.664-2.091-4.667-4.666v-0c0-0.368 0.298-0.667 0.667-0.667v0h8c0.368 0 0.667 0.298 0.667 0.667v0c-0.003 2.576-2.091 4.664-4.666 4.667h-0zM20.067 13.333c0.32 1.534 1.66 2.67 3.267 2.67s2.947-1.136 3.263-2.648l0.004-0.022z"></path>
<path d="M26.762 13.010l-3.429-5.714-3.429 5.714-1.143-0.687 4-6.667c0.127-0.183 0.335-0.301 0.571-0.301s0.445 0.118 0.57 0.299l0.002 0.002 4 6.667z"></path>
<path d="M8.667 5.333h14.667v1.333h-14.667zM16 4c-1.105 0-2-0.895-2-2s0.895-2 2-2c1.105 0 2 0.895 2 2v0c0 1.105-0.895 2-2 2v0zM16 1.333c-0.368 0-0.667 0.298-0.667 0.667s0.298 0.667 0.667 0.667c0.368 0 0.667-0.298 0.667-0.667v0c0-0.368-0.298-0.667-0.667-0.667v0z"></path>
<path d="M15.333 3.333h1.333v16h-1.333z"></path>
<path d="M21.333 22.667h-10.667c-0.368 0-0.667-0.298-0.667-0.667v0-1.333c0-1.105 0.895-2 2-2v0h8c1.105 0 2 0.895 2 2v0 1.333c0 0.368-0.298 0.667-0.667 0.667v0zM11.333 21.333h9.333v-0.667c0-0.368-0.298-0.667-0.667-0.667v0h-8c-0.368 0-0.667 0.298-0.667 0.667v0zM18.667 24.667h10v1.333h-10zM24 21.333h4.667v1.333h-4.667zM3.333 24.667h10v1.333h-10zM3.333 21.333h4.667v1.333h-4.667zM18 30.667h12.667v1.333h-12.667zM1.333 30.667h12.667v1.333h-12.667z"></path>
</symbol>
<symbol id="icon-icon-3-1" viewBox="0 0 32 32">
<path d="M23.667 20.667c-0.185-0.001-0.353-0.077-0.473-0.2l-0-0-12.373-12.393c-0.12-0.12-0.194-0.287-0.194-0.47s0.074-0.349 0.194-0.47l-0 0 4.993-5c0.121-0.122 0.288-0.197 0.473-0.197s0.352 0.075 0.473 0.197l12.373 12.38c0.119 0.12 0.193 0.286 0.193 0.469 0 0.001 0 0.003 0 0.004v-0c-0.001 0.182-0.074 0.347-0.193 0.467l-4.993 4.993c-0.118 0.13-0.285 0.214-0.472 0.22l-0.001 0zM12.233 7.607l11.433 11.427 4.053-4.047-11.433-11.44z"></path>
<path d="M21.853 18.833c-0.001 0-0.003 0-0.004 0-0.368 0-0.667-0.298-0.667-0.667 0-0.185 0.075-0.352 0.197-0.473l0-0 5-4.993c0.121-0.123 0.29-0.199 0.477-0.199 0.37 0 0.669 0.3 0.669 0.669 0 0.183-0.074 0.349-0.193 0.47l0-0-5.007 5.027c-0.117 0.104-0.272 0.167-0.442 0.167-0.011 0-0.022-0-0.033-0.001l0.002 0zM13.1 10.087c-0.183-0.003-0.348-0.079-0.467-0.2l-0-0c-0.12-0.12-0.194-0.287-0.194-0.47s0.074-0.35 0.194-0.47l-0 0 4.993-5c0.121-0.121 0.288-0.196 0.473-0.196 0.37 0 0.669 0.3 0.669 0.669 0 0.185-0.075 0.352-0.196 0.473v0l-5 4.993c-0.12 0.123-0.288 0.199-0.473 0.2h-0zM3.493 30.060c-0.006 0-0.014 0-0.022 0-0.633 0-1.207-0.255-1.625-0.667l0 0c-0.413-0.419-0.668-0.994-0.668-1.629 0-0.030 0.001-0.059 0.002-0.088l-0 0.004c0.066-1.102 0.566-2.077 1.33-2.763l0.004-0.003c0.353-0.327 1.040-1.007 1.953-1.907 2.913-2.88 7.8-7.693 11.533-10.787 0.114-0.093 0.261-0.15 0.421-0.15 0.185 0 0.352 0.075 0.472 0.196l0 0 2.060 2.053c0.119 0.12 0.193 0.286 0.193 0.469 0 0.162-0.058 0.31-0.154 0.426l0.001-0.001c-2.993 3.74-7.833 8.593-10.707 11.5-0.92 0.927-1.613 1.633-1.967 2-0.688 0.77-1.663 1.271-2.756 1.333l-0.011 0zM16.42 13.673c-3.627 3.053-8.207 7.573-10.987 10.327-0.92 0.907-1.62 1.6-2 1.927-0.52 0.449-0.863 1.090-0.919 1.811l-0.001 0.009c-0.001 0.018-0.002 0.039-0.002 0.060 0 0.262 0.094 0.502 0.25 0.688l-0.001-0.002c0.173 0.152 0.4 0.244 0.65 0.244 0.032 0 0.063-0.002 0.094-0.004l-0.004 0c0.735-0.053 1.381-0.397 1.83-0.917l0.003-0.003c0.353-0.373 1.060-1.093 2-2.033 2.733-2.767 7.24-7.333 10.273-10.913zM30.127 30.060h-14.947c-0.368 0-0.667-0.298-0.667-0.667v0-1.547c0.004-1.891 1.536-3.423 3.426-3.427h9.427c1.891 0.004 3.423 1.536 3.427 3.426v1.547c0 0.368-0.298 0.667-0.667 0.667v0zM15.847 28.727h13.613v-0.88c-0.004-1.155-0.939-2.090-2.093-2.093h-9.427c-1.155 0.004-2.090 0.939-2.093 2.093v0z"></path>
</symbol>
<symbol id="icon-icon-4-1" viewBox="0 0 32 32">
<path d="M26 32h-22.667c-1.105 0-2-0.895-2-2v0-24c0-0.184 0.075-0.351 0.195-0.471l5.333-5.333c0.121-0.121 0.287-0.195 0.471-0.195h18.667c1.105 0 2 0.895 2 2v0 15.333h-1.333v-15.333c0-0.368-0.298-0.667-0.667-0.667v0h-18.391l-4.943 4.943v23.724c0 0.368 0.298 0.667 0.667 0.667v0h22.667c0.368 0 0.667-0.298 0.667-0.667v0-6h1.333v6c0 1.105-0.895 2-2 2v0z"></path>
<path d="M6 6.667h-4v-1.333h4c0.368 0 0.667-0.298 0.667-0.667v0-4h1.333v4c0 1.105-0.895 2-2 2v0zM25.333 6h-1.333v-1.333c0-0.368-0.298-0.667-0.667-0.667v0h-1.333v-1.333h1.333c1.105 0 2 0.895 2 2v0zM19.333 2.667h1.333v1.333h-1.333zM20.667 29.333h-9.333c-1.105 0-2-0.895-2-2s0.895-2 2-2v0h9.333c1.105 0 2 0.895 2 2s-0.895 2-2 2v0zM11.333 26.667c-0.368 0-0.667 0.298-0.667 0.667s0.298 0.667 0.667 0.667v0h9.333c0.368 0 0.667-0.298 0.667-0.667s-0.298-0.667-0.667-0.667v0zM20.667 16h-9.333c-1.105 0-2-0.895-2-2s0.895-2 2-2v0h9.333c1.105 0 2 0.895 2 2s-0.895 2-2 2v0zM11.333 13.333c-0.368 0-0.667 0.298-0.667 0.667s0.298 0.667 0.667 0.667v0h9.333c0.368 0 0.667-0.298 0.667-0.667s-0.298-0.667-0.667-0.667v0z"></path>
<path d="M20 26.667h-8c-0.368 0-0.667-0.298-0.667-0.667v0-10.667c0-0.368 0.298-0.667 0.667-0.667v0h8c0.368 0 0.667 0.298 0.667 0.667v0 10.667c0 0.368-0.298 0.667-0.667 0.667v0zM12.667 25.333h6.667v-9.333h-6.667z"></path>
<path d="M21.333 23.333h-1.333v-1.333h1.333c0.368 0 0.667-0.298 0.667-0.667v0-1.333c0-0.368-0.298-0.667-0.667-0.667v0h-1.333v-1.333h1.333c1.105 0 2 0.895 2 2v0 1.333c0 1.105-0.895 2-2 2v0z"></path>
<path d="M31.333 22.667h-8.667v-1.333h8v-1.333h-8v-1.333h8.667c0.368 0 0.667 0.298 0.667 0.667v0 2.667c0 0.368-0.298 0.667-0.667 0.667v0zM5.333 8.667h19.333v1.333h-19.333zM5.333 12h2.667v1.333h-2.667zM5.333 15.333h2.667v1.333h-2.667zM5.333 18.667h4.667v1.333h-4.667zM5.333 22h4.667v1.333h-4.667zM5.333 25.333h2.667v1.333h-2.667z"></path>
</symbol>
<symbol id="icon-icon-5-1" viewBox="0 0 32 32">
<path d="M30.345 7.656h-5.344v-2.849c0-1.466 1.199-2.659 2.672-2.659s2.672 1.193 2.672 2.659v2.849zM26.001 6.656h3.344v-1.849c0-0.915-0.75-1.659-1.672-1.659s-1.672 0.744-1.672 1.659v1.849z"></path>
<path d="M26.001 12.354h-1v-7.546c0-0.617 0.212-1.188 0.57-1.642-1.393-0-3.203-0.001-4.292-0.002l-0.91-0.001v-1l0.91 0.001c1.756 0.001 5.374 0.003 6.14-0.001l0.059 0.997c-0.842 0.097-1.477 0.805-1.477 1.647v7.546zM4.783 28.833l-0.008-0.337 0.008-0v-2.486h1v2.813zM23.604 31.957l-1.201-0c-12.085-0.002-18.493-0.002-19.045 0l-0.004-1c0.554-0.002 6.963-0.002 19.049-0l1.142 0c0.832-0.109 1.456-0.811 1.456-1.644l-0.016-0.861h0.016v-1.432h1l-0.004 2.432c-0.071 1.293-1.064 2.352-2.365 2.502l-0.028 0.003z"></path>
<path d="M3.192 31.957l-0.057-0.003c-1.347-0.155-2.362-1.29-2.362-2.641v-1.586h21.218v1.586c0 0.842 0.635 1.55 1.477 1.647l-0.059 0.997c-0.322-0.001-2.609-0.002-5.537-0.002l-14.68 0.002zM1.772 28.728v0.586c0 0.833 0.622 1.535 1.45 1.644l18.338-0.002c-0.355-0.446-0.57-1.018-0.57-1.64 0-0.001 0-0.002 0-0.003v0-0.586h-19.218zM30.345 7.828h-1v-3.021c0-0.915-0.75-1.659-1.672-1.659s-1.672 0.744-1.672 1.659h-1c0-1.466 1.199-2.659 2.672-2.659s2.672 1.193 2.672 2.659v3.021z"></path>
<path d="M23.536 31.957c-1.332 0-2.546-1.26-2.546-2.644v-1.748h1v1.748c0 0.845 0.751 1.644 1.546 1.644v1zM17.762 24.663h-16.983c-0.43-0-0.778-0.349-0.779-0.779v-23.063c0.001-0.43 0.349-0.778 0.779-0.778h16.983c0 0 0 0 0 0 0.43 0 0.779 0.348 0.779 0.778v23.063c-0.001 0.43-0.349 0.778-0.779 0.779h-0zM1 23.663h16.541v-22.62h-16.541v22.62z"></path>
<path d="M17.762 22.008h-16.983c-0.43-0-0.778-0.349-0.779-0.778v-17.599h1v17.378h16.541v-17.378h1v17.599c-0.001 0.43-0.349 0.778-0.779 0.779h-0z"></path>
<path d="M15.8 7.633h-13.059v-4.037h13.059v4.037zM3.741 6.633h11.059v-2.037h-11.059v2.037zM2.744 9.738h2.208v1h-2.208zM6.359 9.738h2.208v1h-2.208zM9.974 9.738h2.208v1h-2.208zM13.589 9.738h2.208v1h-2.208zM2.744 12.451h2.208v1h-2.208zM6.359 12.451h2.208v1h-2.208zM9.974 12.451h2.208v1h-2.208zM13.589 12.451h2.208v1h-2.208zM2.744 15.165h2.208v1h-2.208zM6.359 15.165h2.208v1h-2.208zM9.974 15.165h2.208v1h-2.208zM13.589 15.165h2.208v1h-2.208zM2.744 17.878h2.208v1h-2.208zM6.359 17.878h2.208v1h-2.208zM9.974 17.878h2.208v1h-2.208zM13.589 17.878h2.208v1h-2.208zM25.459 25.645c-3.19 0-5.785-2.582-5.785-5.755s2.596-5.755 5.786-5.755 5.786 2.581 5.786 5.755c0 3.174-2.596 5.755-5.786 5.755zM25.459 15.136c-2.639 0-4.786 2.133-4.786 4.755s2.147 4.755 4.785 4.755c2.639 0 4.786-2.133 4.786-4.755s-2.147-4.755-4.786-4.755z"></path>
<path d="M25.95 22.003h-1v-3.614l-0.817 0.843-0.718-0.696 1.676-1.729 0.859 0.348z"></path>
<path d="M24.299 21.485h2.274v1h-2.274zM29.38 9.567h1v4.214h-1z"></path>
<path d="M27.761 11.174h4.239v1h-4.239z"></path>
</symbol>
<symbol id="icon-icon-6-1" viewBox="0 0 32 32">
<path d="M14.553 20.901l-0.511 0.631c0.439 0.409 1.008 0.684 1.639 0.757l0.014 0.001v0.475h0.645v-0.454c1.029-0.071 1.617-0.666 1.617-1.482 0-0.865-0.645-1.198-1.617-1.418v-1.333c0.392 0.097 0.731 0.282 1.009 0.534l-0.002-0.002 0.482-0.652c-0.399-0.358-0.912-0.597-1.478-0.657l-0.012-0.001v-0.441h-0.645v0.433c-0.872 0.106-1.461 0.695-1.461 1.461 0 0.837 0.588 1.149 1.461 1.375v1.383c-0.447-0.102-0.833-0.316-1.143-0.61l0.001 0.001zM16.34 20.291c0.504 0.15 0.73 0.298 0.73 0.625 0 0.312-0.248 0.581-0.73 0.638zM15.128 18.675c0.025-0.312 0.261-0.562 0.563-0.61l0.004-0v1.177c-0.383-0.134-0.567-0.284-0.567-0.567z"></path>
<path d="M16 24.4c0 0 0 0 0 0 2.534 0 4.588-2.054 4.588-4.588s-2.054-4.588-4.588-4.588c-2.534 0-4.588 2.054-4.588 4.588 0 0 0 0.001 0 0.001v-0c0.004 2.532 2.055 4.584 4.587 4.587h0zM16 16.1c0 0 0 0 0 0 2.050 0 3.713 1.662 3.713 3.713s-1.662 3.713-3.713 3.713c-2.050 0-3.713-1.662-3.713-3.712v-0c0.002-2.050 1.663-3.71 3.712-3.713h0z"></path>
<path d="M30.423 9.072c0 0 0 0 0 0 0.241 0 0.437-0.196 0.437-0.437 0-0 0-0 0-0v0-1.908c-0-0.189-0.12-0.35-0.287-0.411l-0.003-0.001-14.424-5.15c-0.044-0.016-0.094-0.025-0.147-0.025s-0.103 0.009-0.15 0.026l0.003-0.001-14.423 5.15c-0.171 0.062-0.29 0.223-0.29 0.412v0 1.908c0 0.242 0.196 0.438 0.438 0.438v0h0.707v1.137h-0.707c-0.242 0-0.438 0.196-0.438 0.438v0 2.058c0 0.242 0.196 0.438 0.438 0.438v0h1.61v1.697c0 0.242 0.196 0.438 0.438 0.438v0h0.389v9.073h-0.388c-0.242 0-0.437 0.196-0.438 0.438v0 1.697h-1.611c-0.242 0-0.438 0.196-0.438 0.438v0 3.502c0 0.242 0.196 0.438 0.438 0.438v0h28.846c0 0 0 0 0 0 0.241 0 0.437-0.196 0.437-0.437 0-0 0-0 0-0v0-3.503c0-0 0-0 0-0 0-0.241-0.196-0.437-0.437-0.437-0 0-0 0-0 0h-1.61v-1.697c0-0.242-0.196-0.438-0.438-0.438v0h-0.389v-9.072h0.389c0 0 0 0 0 0 0.241 0 0.437-0.196 0.437-0.437 0-0 0-0 0-0v0-1.697h1.61c0 0 0 0 0 0 0.241 0 0.437-0.196 0.437-0.437 0-0 0-0 0-0v0-2.058c0-0 0-0 0-0 0-0.242-0.196-0.437-0.437-0.437-0 0-0 0-0 0h-0.707v-1.137zM2.014 7.035l13.986-4.994 13.986 4.994v1.162h-27.971zM8.439 13.142v1.259h-4.378v-1.259zM22.687 13.142v1.697c0 0 0 0 0 0 0 0.242 0.196 0.437 0.437 0.437 0 0 0 0 0 0h0.388v9.073h-0.387c-0.242 0-0.438 0.196-0.438 0.438v0 1.697h-13.374v-1.698c-0-0.242-0.196-0.437-0.438-0.438h-0.389v-9.072h0.389c0.242 0 0.438-0.196 0.438-0.438v0-1.697zM4.887 15.277h2.725v9.073h-2.724zM4.062 25.224h4.378v1.259h-4.378zM29.987 29.986h-27.973v-2.627h27.971zM23.562 26.484v-1.259h4.378v1.259zM27.112 24.349h-2.724v-9.072h2.725zM27.937 14.402h-4.375v-1.259h4.378zM29.984 12.267h-27.97v-1.183h27.971zM28.84 10.209h-25.681v-1.137h25.683z"></path>
</symbol>
<symbol id="icon-mob-close" viewBox="0 0 32 32">
<path d="M23.734 10.304l-1.504-1.504-5.963 5.962-5.962-5.962-1.504 1.504 5.962 5.962-5.962 5.963 1.504 1.504 5.962-5.963 5.963 5.963 1.504-1.504-5.963-5.963 5.963-5.962z"></path>
</symbol>
</defs>
</svg>
